<svg version="1.2" baseProfile="tiny" xmlns="http://www.w3.org/2000/svg" viewBox="0 0 595.3 841.9"><path fill="#D6203D" d="M526.4 401.9c-9.9 10.9-23.6 23.8-39.3 31l-.5-.5h.1c1.8-.3 3.3-5.9 4-7.4 1.6-3.8 3.3-7.5 5-11.3 3.3-7.5 6.7-15 10-22.5 1.9-4.3 3.7-8.6 5.4-13 1.8-4.4 3.4-8.9 5.5-13.2.6-1.2 3.9-9.3-.4-7-11.8 20-51.5 67.5-67.6 67.5-3 0-3.8-1.1-3.8-4.1 0-10.1 26.3-33.7 26.3-53.2 0-7.4-3.6-15.1-12.1-15.1-6.3 0-15.3 4.4-31 21.9-12.6 14.3-13.4 15.4-13.4 16.2 0 .8.3 1.4 1.1 1.4 1.6 0 1.6-2.2 17.3-18.6 10.4-11 18.6-17.5 25.5-17.5 3.3 0 4.4 1.4 4.4 3.6 0 12.1-26.3 33.2-26.3 53.2 0 7.4 4.9 15.6 11.8 15.6 13.4 0 43-32.1 50.2-41.9l.5.5-23.8 45.5c-44.4 26.6-75.9 47.1-75.9 67.2 0 9.9 5.8 14.8 13.4 14.8 16.5 0 42.8-26.9 71-76.8 15.9-8.2 29.8-16.1 44.1-34 4.5-6 .6-4.6-1.5-2.3zm-113 109.7c-4.7 0-8.2-3.3-8.2-10.4 0-14.3 17.3-31 67.2-63l.3.3c-26.4 53.6-45.6 73.1-59.3 73.1zM292.3 406.3c.6.3 1.4.6 3 .6 9.3 0 18.6-5.5 25.5-13.4 3.6-4.1 3.8-4.7 4.7-4.7 1.1 0 1.4.5 1.4 1.4 0 .6-.5 1.6-6.9 8.2-6.8 7.1-16.4 11.8-27.1 11.8-1.9 0-2.7 0-3.6-.3-8.5 9.6-19.7 19.5-35.1 19.5-11 0-17-9.6-17-24.4 0-9.9 1.4-12.6 1.4-14.3 0-1.1-.3-1.6-.8-1.6-2.2 0-4.1 4.4-4.9 4.4-.8 0-1.6-.5-1.6-1.4 0-1.4 9.3-11 15.9-17.3 15.9-15.1 32.6-21.7 45-21.7 10.4 0 16.4 7.9 16.4 18.9-.2 11.3-8.1 26.1-16.3 34.3zm.5-49.9c-19.2 0-44.7 36.5-44.7 59.5 0 7.7 3.3 10.1 7.1 10.1 21.7 0 47.1-32.4 47.1-57.3.1-6.5-2.6-12.3-9.5-12.3zM358.9 399.7c-7.1 11-21.7 29.6-35.9 29.6-9 0-11.8-3.3-11.8-8.5 0-4.7 1.9-8 7.4-8 3.8 0 6.3 2.7 6.3 7.4 0 3.3.8 4.7 1.9 4.7 8 0 25.8-17.8 33.4-31 3.6-6.3 10.2-28.2 10.2-32.9 0-3.3-1.4-4.7-3-4.7-6.6 0-15.1 7.4-25.5 17.8-14.5 14.3-16.2 18.4-17.3 18.4-.8 0-1.1-.8-1.1-1.6 0-.5 1.4-3 17.3-19.7 10.7-11 19.2-18.1 27.4-18.1 7.7 0 11.5 6.6 11.5 17.5 0 5.5-.5 10.1-1.1 11.5l.6.5c5.2-10.1 21.1-29.6 33.7-29.6 6.6 0 10.7 3.8 10.7 8.8 0 3.6-2.2 6.6-6 6.6-3.3 0-6-1.6-6.6-6-.3-2.5-.3-3.3-4.1-3.3-9.9 0-37.6 33.7-37.6 62.5 0 2.7 1.1 4.4 3.3 4.4 6.3 0 15.9-7.1 30.2-22.2 10.7-11.2 12.6-15.1 14-15.1.8 0 1.4.5 1.4 1.4 0 .8-8.5 10.7-18.1 20.8-12.1 12.9-20.3 18.4-28.2 18.4-11.2 0-13.4-10.4-13.4-22.2 0-1.9.5-5.5 1.1-7.4h-.7zM403.2 444.1c-41.3-17.8-94.4 3.5-143.1 28.4v-.1l-6.8 3.6-.1-.1c-.9-.9-35.8-38-33.9-112.3 0-.5-.1-.9-.1-1.4 19.8-.6 39.4-13.3 48.8-32.9 6.8-14.2 3.3-37.8-18.6-50.8-3.1-2.1-29.1-18.3-67.7-9.8-5.6 1.1-11 2.6-16.3 4.5-10.2 3.6-19.7 9-27.8 16-12.1 10.5-20.7 25.2-22.3 41.3-1.6 15.9 5.9 31.7 22.4 35.5 3 .7 5.7.9 8.2.8 1.1-.1 16.1-3 14-6.6.2.3-12.7 1.9-13.7 1.7-4-.6-8.9-2.5-12.9-6.1-4.7-4.2-6.8-10.2-6.9-16.4-.3-4.7 2.7-14.2 5.5-19.7 6.1-12.3 16.8-22.1 29.2-29.2 3.8-2 9.2-4.7 17.4-6.9 10-2.4 27.5-5.5 43.6-2.7 5.9 1.3 10.7 2.9 14.6 4.8 4.7 2.4 8.8 5.7 12.3 10.1 5.6 9 3 20.1 1.1 30.5-9.4 25.6-37.4 28.5-44.7 27.5-7.2-1.5-8.5.7-7.7 2.9.7 2.2 0 0 11.1 46.6 7.2 30.1 21.9 55.5 39.3 75.2 0 0-43 27.9-77.2 41.6-27.5 9.2-57.5 19.2-85.4 7.9-7-4-13.8-8.6-19.4-14.5-5.5-5.5-9.8-12.6-11.1-20.5-.7-3.9-.6-8 0-12 2-12.1 9.3-23.7 18.1-32.1 0-.1.5-2.3-1-1.1-9.8 8.2-18.1 19.9-21 32.5-1 4.3-1.3 8.9-.8 13.4s1.8 8.9 3.8 13c16.3 33.9 55.5 39.6 89 35.4 4.8-.6 9.6-1.4 14.3-2.4h.2l1.2-.3c3.3-.7 6.6-1.6 9.8-2.5 38.2-10.6 81.6-30 95.4-36.4 1.5-.7 2.9-1.4 4.4-2.1 0 0 37.4 28.8 88.3 28.3 24.6-1.2 46.3-8.2 61.5-19 22.4-16 20.5-47.4-15-63.6zm15.6 54.2c-4.2 6.5-22.8 24.3-68.1 24.3-45.2 0-77-27.1-77-27.1s39.2-19.6 76.8-29.5c7.7-2.2 14.7-3.7 20.5-4.5 1.8-.2 3.5-.4 5.2-.5 8.4-.9 16.1-.8 22.6.6 30.6 6.6 24.3 30.1 20 36.7z"/><g fill="#D6203D"><path d="M543.8 352.5c-2.8-49.1-47-84.6-90.5-98.8-48.3-15.8-102.4-13.2-150.6 1.7-46.2 14.4-87.5 41.3-118.3 78.8-29.4 35.8-44.2 81.9-40 128.4 1.5 17 5.8 33.6 12.5 49.2h.1-.1c2.3 4.9 4.9 9.6 7.9 14.2 1.5 2.3 2.8 4.5 4.1 6.7 11.1 15.3 32.4 37.2 69.8 52.8.5.2 1 .4 1.6.6.7.2 1.1-.7.5-1.1-13.5-7.8-26.4-16.3-37.9-26.8-12.9-11.8-26-27.6-34.1-43.1-5.6-13.5-9.6-27.6-11.4-42.3-5.5-45.4 8-91.3 35.1-127.6 59.2-79.6 178.8-115 271.7-79.5 25.2 9.8 47.1 26 62 48.7 9.6 14.7 15.6 32.2 14.1 49.9-.8 9.3-3.6 18.4-7.7 26.8-2.1 4.3-4.5 8.6-7.6 12.3-.5.6-6 5.4-5.6 6.4.1.3 2.3-1.4 2.4-1.5-.8.4-1 1.1-.8 1.8 1 1 3.8-3 4.2-3.5l-.1.9c.2-1.7 4.2-5.4 5.2-6.8 3.1-4.6 5.7-9.5 7.8-14.6 4.3-10.8 6.4-22.1 5.7-33.6zM543.8 352.5c.2 2.9-.6-10.6 0 0z"/></g><g fill="#F5E7C3"><path d="M277.5 575.2l3.5.6 4.9 18.1h.2l10.8-15.3 3.4.6-4 21.7-3.4-.6 3.2-17.8h-.1L284.4 599l-.7-.1-5.2-19.2h-.2l-3.2 17.7-1.5-.3 3.9-21.9zM320.1 602.8c-1.1 0-2.1-.2-3.1-.4-1-.3-1.9-.7-2.7-1.2-.8-.5-1.6-1.1-2.3-1.9-.7-.7-1.3-1.5-1.8-2.4-.5-.9-.9-1.8-1.1-2.8-.3-1-.4-2-.4-3.1s.1-2.1.4-3c.3-1 .7-1.9 1.1-2.7.5-.8 1.1-1.6 1.8-2.3.7-.7 1.5-1.3 2.3-1.8.8-.5 1.8-.9 2.8-1.1 1-.3 2-.4 3.1-.4s2.1.1 3.1.4c1 .3 1.9.7 2.7 1.2.8.5 1.6 1.1 2.3 1.8.7.7 1.3 1.5 1.8 2.3.5.8.9 1.8 1.1 2.7.3 1 .4 2 .4 3.1s-.1 2.1-.4 3.1c-.3 1-.7 1.9-1.2 2.8-.5.9-1.1 1.7-1.8 2.4s-1.5 1.3-2.3 1.8c-.8.5-1.8.9-2.7 1.2-1 .2-2.1.3-3.1.3zm0-1.1c1.2 0 2.2-.3 3.1-.8.9-.5 1.7-1.2 2.3-2.2.6-.9 1.1-2.1 1.4-3.3.3-1.3.5-2.7.5-4.2s-.1-2.9-.5-4.2c-.3-1.3-.8-2.4-1.4-3.3-.6-.9-1.4-1.6-2.3-2.2-.9-.5-2-.8-3.1-.8-1.2 0-2.3.2-3.2.7-.9.5-1.7 1.2-2.3 2.1-.6.9-1.1 2-1.4 3.3-.3 1.3-.5 2.7-.5 4.2s.1 3 .4 4.3c.3 1.3.8 2.4 1.4 3.4.6.9 1.4 1.7 2.3 2.2 1 .6 2.1.8 3.3.8zM356.7 577.2l.2 1.4-7.4 1 2.8 20.5-3.5.5-2.8-20.5-7.5 1-.2-1.4 18.4-2.5zM364.5 575.4l3.4-.8 5 21.5-3.4.8-5-21.5zM394.8 590.4c-1 .3-2 .5-3.1.6-1 .1-2 0-3-.2s-1.9-.5-2.8-1c-.9-.4-1.7-1-2.5-1.7-.7-.7-1.4-1.4-2-2.3-.6-.9-1-1.8-1.4-2.8-.3-1-.5-2-.6-3-.1-1 0-2 .2-3s.5-1.9.9-2.8c.4-.9 1-1.7 1.6-2.4.6-.7 1.4-1.4 2.2-2 .8-.6 1.8-1 2.8-1.4 1-.3 2-.6 3.1-.6 1-.1 2 0 3 .2s1.9.5 2.8.9c.9.4 1.7 1 2.4 1.6.7.6 1.4 1.4 2 2.2.6.8 1 1.7 1.4 2.8.3 1 .5 2 .6 3.1.1 1 0 2-.2 3s-.5 1.9-.9 2.8c-.4.9-1 1.7-1.6 2.5-.6.8-1.4 1.4-2.2 2-.8.7-1.7 1.1-2.7 1.5zm-.4-1.1c1.1-.4 2-1 2.7-1.8.7-.8 1.2-1.7 1.5-2.8.3-1.1.4-2.3.3-3.6-.1-1.3-.4-2.7-.9-4.2-.5-1.4-1.1-2.7-1.8-3.8-.7-1.1-1.5-2-2.4-2.6-.9-.7-1.8-1.1-2.9-1.3-1-.2-2.1-.1-3.2.3s-2.1 1-2.8 1.8c-.7.8-1.2 1.7-1.5 2.8-.3 1.1-.4 2.2-.3 3.5.1 1.3.4 2.7.9 4.1.5 1.5 1.1 2.7 1.8 3.9.7 1.1 1.5 2 2.4 2.7.9.7 1.9 1.1 2.9 1.3 1.1.2 2.2.1 3.3-.3zM406.3 561.7l1.7-.9 19.3 8.5.1-.1-7.1-14.5 1.4-.7 10 20.3-.7.4-21.2-9.6-.1.1 7.7 15.7-1.4.7-9.7-19.9zM441.9 541.8l5.5-4.2c1.7-1.3 3.3-2.2 4.8-2.8 1.5-.6 2.9-.8 4.3-.7 1.6.1 3 .6 4.3 1.3 1.3.7 2.4 1.8 3.4 3.1.9 1.2 1.6 2.6 2 4 .4 1.4.5 2.8.3 4.3-.2 1.4-.7 2.8-1.6 4.2-.8 1.4-2 2.6-3.6 3.8l-6.2 4.7-13.2-17.7zm15.1 14.3l3-2.2c.9-.7 1.7-1.5 2.3-2.5.6-1 .9-2 1.1-3.1.1-1.1 0-2.3-.4-3.5-.4-1.2-1-2.4-2-3.7-.8-1.1-1.7-2-2.8-2.6-1-.7-2.1-1.1-3.2-1.3-1.1-.2-2.2-.2-3.3.1-1.1.3-2.1.8-3.1 1.5l-3 2.2 11.4 15.1zM474.7 514l1 1-7.9 7.6 5.5 5.7 5.3-5.1 1 1-5.3 5.1 6.9 7.1 7.9-7.6 1 1-10.4 10-15.4-15.8 10.4-10zM500.3 517c.3-.4.6-.8.8-1.3.2-.5.3-1 .3-1.5s0-1-.2-1.4c-.2-.5-.5-.9-.9-1.2-.5-.4-1.1-.7-1.7-.8-.6-.1-1.3-.1-1.9.1-.7.1-1.4.3-2.1.6-.7.3-1.5.6-2.2.8-.8.3-1.5.6-2.3.8-.8.3-1.5.4-2.3.5-.7.1-1.5 0-2.2-.1-.7-.2-1.4-.5-2-1.1-.6-.5-1.2-1.2-1.5-1.9-.4-.7-.6-1.4-.6-2.2 0-.8.1-1.6.4-2.4.3-.8.8-1.7 1.5-2.5 1.3-1.5 2.6-2.4 4-2.7 1.4-.3 2.9-.1 4.5.6l-.5 1.9c-.7-.3-1.3-.5-1.9-.6-.6-.1-1.3-.1-1.9 0-.6.1-1.2.3-1.7.6s-1 .7-1.5 1.3c-.4.5-.7 1-.9 1.5-.2.5-.2 1-.2 1.4 0 .4.1.9.3 1.2.2.4.5.7.8 1 .4.4 1 .6 1.5.6.6.1 1.2 0 1.9-.1s1.4-.3 2.2-.6c.8-.3 1.5-.6 2.3-.9.8-.3 1.6-.6 2.4-.8.8-.3 1.6-.4 2.3-.5.8-.1 1.5 0 2.2.1.7.1 1.3.5 1.9 1 .7.6 1.2 1.2 1.6 1.9.4.7.6 1.5.6 2.4 0 .9-.1 1.7-.4 2.7-.3.9-.9 1.9-1.7 2.8-.6.8-1.3 1.4-2 1.8-.7.5-1.4.8-2.1.9-.7.2-1.5.2-2.2.1-.8-.1-1.6-.3-2.4-.6l.6-2c.7.3 1.4.5 2.1.6.7.1 1.3.1 1.9-.1.6-.1 1.2-.3 1.7-.7.6-.2 1.1-.7 1.5-1.2zM493.8 490.8l2-2.9 18.1 12.7-2 2.9-18.1-12.7zM508 470c-.6 1.1-.9 2.2-1 3.4-.1 1.2.1 2.3.5 3.4s1.1 2.1 1.9 3.1c.9 1 2 1.8 3.4 2.6 1.4.7 2.7 1.2 4 1.4 1.3.2 2.6.1 3.7-.1 1.2-.3 2.2-.8 3.1-1.5.9-.7 1.7-1.6 2.3-2.7.4-.8.7-1.6.8-2.4.1-.8.1-1.5 0-2.3l-6.8-3.7-1.9 3.4-1.2-.6 3.5-6.5 8.5 4.7c0 .7 0 1.4-.1 2-.1.7-.2 1.4-.4 2.1-.2.7-.4 1.5-.8 2.3-.3.8-.8 1.7-1.3 2.6-.5 1-1.2 1.9-1.9 2.7-.7.8-1.5 1.4-2.4 2-.9.5-1.8.9-2.7 1.2-1 .3-1.9.4-2.9.5-1 0-2-.1-2.9-.3-1-.2-1.9-.6-2.8-1.1-.9-.5-1.7-1.1-2.5-1.8-.7-.7-1.4-1.5-1.9-2.3-.5-.8-1-1.7-1.3-2.7-.3-1-.5-1.9-.5-2.9s0-2 .3-3.1c.2-1 .6-2.1 1.2-3.1.5-1 1.2-1.8 1.9-2.5s1.5-1.2 2.3-1.6c.8-.4 1.7-.7 2.6-.9s1.8-.3 2.6-.3l.2 1.8c-2-.1-3.6.1-4.9.7-1 .4-1.9 1.3-2.6 2.5zM514.7 453.9l.7-1.8 19.8-7.4v-.1l-15.2-5.4.5-1.4 21.3 7.6-.3.8-21.9 7.8v.1L536 460l-.5 1.5-20.8-7.6z"/></g></svg>