<?xml version="1.0" encoding="utf-8"?>
<!-- Generator: Adobe Illustrator 18.0.0, SVG Export Plug-In . SVG Version: 6.00 Build 0)  -->
<svg version="1.2" baseProfile="tiny" id="Ebene_1" xmlns="http://www.w3.org/2000/svg" xmlns:xlink="http://www.w3.org/1999/xlink"
	 x="0px" y="0px" viewBox="0 0 595.3 841.9" xml:space="preserve">
<path fill="#D6203D" d="M526.4,401.9c-9.9,10.9-23.6,23.8-39.3,31l-0.5-0.5l0.1,0c1.8-0.3,3.3-5.9,4-7.4c1.6-3.8,3.3-7.5,5-11.3
	c3.3-7.5,6.7-15,10-22.5c1.9-4.3,3.7-8.6,5.4-13c1.8-4.4,3.4-8.9,5.5-13.2c0.6-1.2,3.9-9.3-0.4-7c0,0,0,0,0,0
	c-11.8,20-51.5,67.5-67.6,67.5c-3,0-3.8-1.1-3.8-4.1c0-10.1,26.3-33.7,26.3-53.2c0-7.4-3.6-15.1-12.1-15.1c-6.3,0-15.3,4.4-31,21.9
	c-12.6,14.3-13.4,15.4-13.4,16.2c0,0.8,0.3,1.4,1.1,1.4c1.6,0,1.6-2.2,17.3-18.6c10.4-11,18.6-17.5,25.5-17.5c3.3,0,4.4,1.4,4.4,3.6
	c0,12.1-26.3,33.2-26.3,53.2c0,7.4,4.9,15.6,11.8,15.6c13.4,0,43-32.1,50.2-41.9l0.5,0.5l-23.8,45.5c-44.4,26.6-75.9,47.1-75.9,67.2
	c0,9.9,5.8,14.8,13.4,14.8c16.5,0,42.8-26.9,71-76.8c15.9-8.2,29.8-16.1,44.1-34C532.4,398.2,528.5,399.6,526.4,401.9z M413.4,511.6
	c-4.7,0-8.2-3.3-8.2-10.4c0-14.3,17.3-31,67.2-63l0.3,0.3C446.3,492.1,427.1,511.6,413.4,511.6z"/>
<path fill="#D6203D" d="M292.3,406.3c0.6,0.3,1.4,0.6,3,0.6c9.3,0,18.6-5.5,25.5-13.4c3.6-4.1,3.8-4.7,4.7-4.7
	c1.1,0,1.4,0.5,1.4,1.4c0,0.6-0.5,1.6-6.9,8.2c-6.8,7.1-16.4,11.8-27.1,11.8c-1.9,0-2.7,0-3.6-0.3c-8.5,9.6-19.7,19.5-35.1,19.5
	c-11,0-17-9.6-17-24.4c0-9.9,1.4-12.6,1.4-14.3c0-1.1-0.3-1.6-0.8-1.6c-2.2,0-4.1,4.4-4.9,4.4c-0.8,0-1.6-0.5-1.6-1.4
	c0-1.4,9.3-11,15.9-17.3c15.9-15.1,32.6-21.7,45-21.7c10.4,0,16.4,7.9,16.4,18.9C308.4,383.3,300.5,398.1,292.3,406.3z M292.8,356.4
	c-19.2,0-44.7,36.5-44.7,59.5c0,7.7,3.3,10.1,7.1,10.1c21.7,0,47.1-32.4,47.1-57.3C302.4,362.2,299.7,356.4,292.8,356.4z"/>
<path fill="#D6203D" d="M358.9,399.7c-7.1,11-21.7,29.6-35.9,29.6c-9,0-11.8-3.3-11.8-8.5c0-4.7,1.9-8,7.4-8c3.8,0,6.3,2.7,6.3,7.4
	c0,3.3,0.8,4.7,1.9,4.7c8,0,25.8-17.8,33.4-31c3.6-6.3,10.2-28.2,10.2-32.9c0-3.3-1.4-4.7-3-4.7c-6.6,0-15.1,7.4-25.5,17.8
	c-14.5,14.3-16.2,18.4-17.3,18.4c-0.8,0-1.1-0.8-1.1-1.6c0-0.5,1.4-3,17.3-19.7c10.7-11,19.2-18.1,27.4-18.1
	c7.7,0,11.5,6.6,11.5,17.5c0,5.5-0.5,10.1-1.1,11.5l0.6,0.5c5.2-10.1,21.1-29.6,33.7-29.6c6.6,0,10.7,3.8,10.7,8.8
	c0,3.6-2.2,6.6-6,6.6c-3.3,0-6-1.6-6.6-6c-0.3-2.5-0.3-3.3-4.1-3.3c-9.9,0-37.6,33.7-37.6,62.5c0,2.7,1.1,4.4,3.3,4.4
	c6.3,0,15.9-7.1,30.2-22.2c10.7-11.2,12.6-15.1,14-15.1c0.8,0,1.4,0.5,1.4,1.4c0,0.8-8.5,10.7-18.1,20.8
	c-12.1,12.9-20.3,18.4-28.2,18.4c-11.2,0-13.4-10.4-13.4-22.2c0-1.9,0.5-5.5,1.1-7.4L358.9,399.7L358.9,399.7z"/>
<path fill="#D6203D" d="M403.2,444.1c-41.3-17.8-94.4,3.5-143.1,28.4c0,0,0,0,0-0.1l-6.8,3.6l-0.1-0.1c-0.9-0.9-35.8-38-33.9-112.3
	c0-0.5-0.1-0.9-0.1-1.4c19.8-0.6,39.4-13.3,48.8-32.9c6.8-14.2,3.3-37.8-18.6-50.8c-3.1-2.1-29.1-18.3-67.7-9.8c0,0,0,0,0,0
	c-5.6,1.1-11,2.6-16.3,4.5c-10.2,3.6-19.7,9-27.8,16c-12.1,10.5-20.7,25.2-22.3,41.3c-1.6,15.9,5.9,31.7,22.4,35.5
	c3,0.7,5.7,0.9,8.2,0.8c1.1-0.1,16.1-3,14-6.6c0.2,0.3-12.7,1.9-13.7,1.7c-4-0.6-8.9-2.5-12.9-6.1c-4.7-4.2-6.8-10.2-6.9-16.4
	c-0.3-4.7,2.7-14.2,5.5-19.7c6.1-12.3,16.8-22.1,29.2-29.2c3.8-2,9.2-4.7,17.4-6.9c10-2.4,27.5-5.5,43.6-2.7
	c5.9,1.3,10.7,2.9,14.6,4.8c4.7,2.4,8.8,5.7,12.3,10.1c5.6,9,3,20.1,1.1,30.5c-9.4,25.6-37.4,28.5-44.7,27.5
	c-7.2-1.5-8.5,0.7-7.7,2.9c0.7,2.2,0,0,11.1,46.6c7.2,30.1,21.9,55.5,39.3,75.2c0,0-43,27.9-77.2,41.6c-27.5,9.2-57.5,19.2-85.4,7.9
	c-7-4-13.8-8.6-19.4-14.5C60.6,508,56.3,500.9,55,493c-0.7-3.9-0.6-8,0-12c2-12.1,9.3-23.7,18.1-32.1c0-0.1,0.5-2.3-1-1.1
	c-9.8,8.2-18.1,19.9-21,32.5c-1,4.3-1.3,8.9-0.8,13.4c0.5,4.5,1.8,8.9,3.8,13c16.3,33.9,55.5,39.6,89,35.4c4.8-0.6,9.6-1.4,14.3-2.4
	c0.1,0,0.1,0,0.2,0c0.4-0.1,0.8-0.2,1.2-0.3c3.3-0.7,6.6-1.6,9.8-2.5c38.2-10.6,81.6-30,95.4-36.4c1.5-0.7,2.9-1.4,4.4-2.1
	c0,0,0,0,0,0v0c0,0,37.4,28.8,88.3,28.3c24.6-1.2,46.3-8.2,61.5-19C440.6,491.7,438.7,460.3,403.2,444.1z M418.8,498.3
	c-4.2,6.5-22.8,24.3-68.1,24.3c-45.2,0-77-27.1-77-27.1s39.2-19.6,76.8-29.5c7.7-2.2,14.7-3.7,20.5-4.5c1.8-0.2,3.5-0.4,5.2-0.5
	c8.4-0.9,16.1-0.8,22.6,0.6C429.4,468.2,423.1,491.7,418.8,498.3z"/>
<g>
	<path fill="#D6203D" d="M543.8,352.5c-2.8-49.1-47-84.6-90.5-98.8c-48.3-15.8-102.4-13.2-150.6,1.7
		c-46.2,14.4-87.5,41.3-118.3,78.8c-29.4,35.8-44.2,81.9-40,128.4c1.5,17,5.8,33.6,12.5,49.2l0.1,0l-0.1,0c2.3,4.9,4.9,9.6,7.9,14.2
		c1.5,2.3,2.8,4.5,4.1,6.7c11.1,15.3,32.4,37.2,69.8,52.8c0.5,0.2,1,0.4,1.6,0.6c0.7,0.2,1.1-0.7,0.5-1.1
		c-13.5-7.8-26.4-16.3-37.9-26.8c-12.9-11.8-26-27.6-34.1-43.1c-5.6-13.5-9.6-27.6-11.4-42.3c-5.5-45.4,8-91.3,35.1-127.6
		c59.2-79.6,178.8-115,271.7-79.5c25.2,9.8,47.1,26,62,48.7c9.6,14.7,15.6,32.2,14.1,49.9c-0.8,9.3-3.6,18.4-7.7,26.8
		c-2.1,4.3-4.5,8.6-7.6,12.3c-0.5,0.6-6,5.4-5.6,6.4c0.1,0.3,2.3-1.4,2.4-1.5c-0.8,0.4-1,1.1-0.8,1.8c1,1,3.8-3,4.2-3.5l-0.1,0.9
		c0.2-1.7,4.2-5.4,5.2-6.8c3.1-4.6,5.7-9.5,7.8-14.6C542.4,375.3,544.5,364,543.8,352.5z"/>
	<path fill="#D6203D" d="M543.8,352.5C544,355.4,543.2,341.9,543.8,352.5L543.8,352.5z"/>
</g>
<g id="Layer_2">
	<g>
		<path fill="#F5E7C3" d="M277.5,575.2l3.5,0.6l4.9,18.1l0.2,0l10.8-15.3l3.4,0.6l-4,21.7l-3.4-0.6l3.2-17.8l-0.1,0L284.4,599
			l-0.7-0.1l-5.2-19.2l-0.2,0l-3.2,17.7l-1.5-0.3L277.5,575.2z"/>
		<path fill="#F5E7C3" d="M320.1,602.8c-1.1,0-2.1-0.2-3.1-0.4c-1-0.3-1.9-0.7-2.7-1.2c-0.8-0.5-1.6-1.1-2.3-1.9
			c-0.7-0.7-1.3-1.5-1.8-2.4c-0.5-0.9-0.9-1.8-1.1-2.8c-0.3-1-0.4-2-0.4-3.1c0-1.1,0.1-2.1,0.4-3c0.3-1,0.7-1.9,1.1-2.7
			c0.5-0.8,1.1-1.6,1.8-2.3c0.7-0.7,1.5-1.3,2.3-1.8c0.8-0.5,1.8-0.9,2.8-1.1c1-0.3,2-0.4,3.1-0.4c1.1,0,2.1,0.1,3.1,0.4
			c1,0.3,1.9,0.7,2.7,1.2c0.8,0.5,1.6,1.1,2.3,1.8c0.7,0.7,1.3,1.5,1.8,2.3c0.5,0.8,0.9,1.8,1.1,2.7c0.3,1,0.4,2,0.4,3.1
			c0,1.1-0.1,2.1-0.4,3.1c-0.3,1-0.7,1.9-1.2,2.8c-0.5,0.9-1.1,1.7-1.8,2.4c-0.7,0.7-1.5,1.3-2.3,1.8c-0.8,0.5-1.8,0.9-2.7,1.2
			C322.2,602.7,321.1,602.8,320.1,602.8z M320.1,601.7c1.2,0,2.2-0.3,3.1-0.8c0.9-0.5,1.7-1.2,2.3-2.2c0.6-0.9,1.1-2.1,1.4-3.3
			c0.3-1.3,0.5-2.7,0.5-4.2c0-1.5-0.1-2.9-0.5-4.2c-0.3-1.3-0.8-2.4-1.4-3.3c-0.6-0.9-1.4-1.6-2.3-2.2c-0.9-0.5-2-0.8-3.1-0.8
			c-1.2,0-2.3,0.2-3.2,0.7c-0.9,0.5-1.7,1.2-2.3,2.1c-0.6,0.9-1.1,2-1.4,3.3c-0.3,1.3-0.5,2.7-0.5,4.2c0,1.5,0.1,3,0.4,4.3
			c0.3,1.3,0.8,2.4,1.4,3.4c0.6,0.9,1.4,1.7,2.3,2.2C317.8,601.5,318.9,601.7,320.1,601.7z"/>
		<path fill="#F5E7C3" d="M356.7,577.2l0.2,1.4l-7.4,1l2.8,20.5l-3.5,0.5l-2.8-20.5l-7.5,1l-0.2-1.4L356.7,577.2z"/>
		<path fill="#F5E7C3" d="M364.5,575.4l3.4-0.8l5,21.5l-3.4,0.8L364.5,575.4z"/>
		<path fill="#F5E7C3" d="M394.8,590.4c-1,0.3-2,0.5-3.1,0.6c-1,0.1-2,0-3-0.2c-1-0.2-1.9-0.5-2.8-1c-0.9-0.4-1.7-1-2.5-1.7
			c-0.7-0.7-1.4-1.4-2-2.3c-0.6-0.9-1-1.8-1.4-2.8c-0.3-1-0.5-2-0.6-3c-0.1-1,0-2,0.2-3c0.2-1,0.5-1.9,0.9-2.8
			c0.4-0.9,1-1.7,1.6-2.4c0.6-0.7,1.4-1.4,2.2-2c0.8-0.6,1.8-1,2.8-1.4c1-0.3,2-0.6,3.1-0.6c1-0.1,2,0,3,0.2c1,0.2,1.9,0.5,2.8,0.9
			c0.9,0.4,1.7,1,2.4,1.6c0.7,0.6,1.4,1.4,2,2.2c0.6,0.8,1,1.7,1.4,2.8c0.3,1,0.5,2,0.6,3.1c0.1,1,0,2-0.2,3c-0.2,1-0.5,1.9-0.9,2.8
			c-0.4,0.9-1,1.7-1.6,2.5c-0.6,0.8-1.4,1.4-2.2,2C396.7,589.6,395.8,590,394.8,590.4z M394.4,589.3c1.1-0.4,2-1,2.7-1.8
			c0.7-0.8,1.2-1.7,1.5-2.8c0.3-1.1,0.4-2.3,0.3-3.6c-0.1-1.3-0.4-2.7-0.9-4.2c-0.5-1.4-1.1-2.7-1.8-3.8c-0.7-1.1-1.5-2-2.4-2.6
			c-0.9-0.7-1.8-1.1-2.9-1.3c-1-0.2-2.1-0.1-3.2,0.3c-1.1,0.4-2.1,1-2.8,1.8c-0.7,0.8-1.2,1.7-1.5,2.8c-0.3,1.1-0.4,2.2-0.3,3.5
			c0.1,1.3,0.4,2.7,0.9,4.1c0.5,1.5,1.1,2.7,1.8,3.9c0.7,1.1,1.5,2,2.4,2.7c0.9,0.7,1.9,1.1,2.9,1.3
			C392.2,589.8,393.3,589.7,394.4,589.3z"/>
		<path fill="#F5E7C3" d="M406.3,561.7l1.7-0.9l19.3,8.5l0.1-0.1l-7.1-14.5l1.4-0.7l10,20.3l-0.7,0.4l-21.2-9.6l-0.1,0.1l7.7,15.7
			l-1.4,0.7L406.3,561.7z"/>
		<path fill="#F5E7C3" d="M441.9,541.8l5.5-4.2c1.7-1.3,3.3-2.2,4.8-2.8c1.5-0.6,2.9-0.8,4.3-0.7c1.6,0.1,3,0.6,4.3,1.3
			c1.3,0.7,2.4,1.8,3.4,3.1c0.9,1.2,1.6,2.6,2,4c0.4,1.4,0.5,2.8,0.3,4.3c-0.2,1.4-0.7,2.8-1.6,4.2c-0.8,1.4-2,2.6-3.6,3.8l-6.2,4.7
			L441.9,541.8z M457,556.1l3-2.2c0.9-0.7,1.7-1.5,2.3-2.5c0.6-1,0.9-2,1.1-3.1c0.1-1.1,0-2.3-0.4-3.5c-0.4-1.2-1-2.4-2-3.7
			c-0.8-1.1-1.7-2-2.8-2.6c-1-0.7-2.1-1.1-3.2-1.3c-1.1-0.2-2.2-0.2-3.3,0.1c-1.1,0.3-2.1,0.8-3.1,1.5l-3,2.2L457,556.1z"/>
		<path fill="#F5E7C3" d="M474.7,514l1,1l-7.9,7.6l5.5,5.7l5.3-5.1l1,1l-5.3,5.1l6.9,7.1l7.9-7.6l1,1l-10.4,10L464.3,524L474.7,514z
			"/>
		<path fill="#F5E7C3" d="M500.3,517c0.3-0.4,0.6-0.8,0.8-1.3c0.2-0.5,0.3-1,0.3-1.5c0-0.5,0-1-0.2-1.4c-0.2-0.5-0.5-0.9-0.9-1.2
			c-0.5-0.4-1.1-0.7-1.7-0.8c-0.6-0.1-1.3-0.1-1.9,0.1c-0.7,0.1-1.4,0.3-2.1,0.6c-0.7,0.3-1.5,0.6-2.2,0.8c-0.8,0.3-1.5,0.6-2.3,0.8
			c-0.8,0.3-1.5,0.4-2.3,0.5c-0.7,0.1-1.5,0-2.2-0.1c-0.7-0.2-1.4-0.5-2-1.1c-0.6-0.5-1.2-1.2-1.5-1.9c-0.4-0.7-0.6-1.4-0.6-2.2
			c0-0.8,0.1-1.6,0.4-2.4c0.3-0.8,0.8-1.7,1.5-2.5c1.3-1.5,2.6-2.4,4-2.7c1.4-0.3,2.9-0.1,4.5,0.6l-0.5,1.9
			c-0.7-0.3-1.3-0.5-1.9-0.6c-0.6-0.1-1.3-0.1-1.9,0c-0.6,0.1-1.2,0.3-1.7,0.6c-0.5,0.3-1,0.7-1.5,1.3c-0.4,0.5-0.7,1-0.9,1.5
			c-0.2,0.5-0.2,1-0.2,1.4c0,0.4,0.1,0.9,0.3,1.2c0.2,0.4,0.5,0.7,0.8,1c0.4,0.4,1,0.6,1.5,0.6c0.6,0.1,1.2,0,1.9-0.1
			c0.7-0.1,1.4-0.3,2.2-0.6c0.8-0.3,1.5-0.6,2.3-0.9c0.8-0.3,1.6-0.6,2.4-0.8c0.8-0.3,1.6-0.4,2.3-0.5c0.8-0.1,1.5,0,2.2,0.1
			c0.7,0.1,1.3,0.5,1.9,1c0.7,0.6,1.2,1.2,1.6,1.9c0.4,0.7,0.6,1.5,0.6,2.4c0,0.9-0.1,1.7-0.4,2.7c-0.3,0.9-0.9,1.9-1.7,2.8
			c-0.6,0.8-1.3,1.4-2,1.8c-0.7,0.5-1.4,0.8-2.1,0.9c-0.7,0.2-1.5,0.2-2.2,0.1c-0.8-0.1-1.6-0.3-2.4-0.6l0.6-2
			c0.7,0.3,1.4,0.5,2.1,0.6c0.7,0.1,1.3,0.1,1.9-0.1c0.6-0.1,1.2-0.3,1.7-0.7C499.4,518,499.9,517.5,500.3,517z"/>
		<path fill="#F5E7C3" d="M493.8,490.8l2-2.9l18.1,12.7l-2,2.9L493.8,490.8z"/>
		<path fill="#F5E7C3" d="M508,470c-0.6,1.1-0.9,2.2-1,3.4c-0.1,1.2,0.1,2.3,0.5,3.4c0.4,1.1,1.1,2.1,1.9,3.1c0.9,1,2,1.8,3.4,2.6
			c1.4,0.7,2.7,1.2,4,1.4c1.3,0.2,2.6,0.1,3.7-0.1c1.2-0.3,2.2-0.8,3.1-1.5c0.9-0.7,1.7-1.6,2.3-2.7c0.4-0.8,0.7-1.6,0.8-2.4
			c0.1-0.8,0.1-1.5,0-2.3l-6.8-3.7l-1.9,3.4l-1.2-0.6l3.5-6.5l8.5,4.7c0,0.7,0,1.4-0.1,2c-0.1,0.7-0.2,1.4-0.4,2.1
			c-0.2,0.7-0.4,1.5-0.8,2.3c-0.3,0.8-0.8,1.7-1.3,2.6c-0.5,1-1.2,1.9-1.9,2.7c-0.7,0.8-1.5,1.4-2.4,2c-0.9,0.5-1.8,0.9-2.7,1.2
			c-1,0.3-1.9,0.4-2.9,0.5c-1,0-2-0.1-2.9-0.3c-1-0.2-1.9-0.6-2.8-1.1c-0.9-0.5-1.7-1.1-2.5-1.8c-0.7-0.7-1.4-1.5-1.9-2.3
			c-0.5-0.8-1-1.7-1.3-2.7c-0.3-1-0.5-1.9-0.5-2.9c0-1,0-2,0.3-3.1c0.2-1,0.6-2.1,1.2-3.1c0.5-1,1.2-1.8,1.9-2.5
			c0.7-0.7,1.5-1.2,2.3-1.6c0.8-0.4,1.7-0.7,2.6-0.9s1.8-0.3,2.6-0.3l0.2,1.8c-2-0.1-3.6,0.1-4.9,0.7
			C509.6,467.9,508.7,468.8,508,470z"/>
		<path fill="#F5E7C3" d="M514.7,453.9l0.7-1.8l19.8-7.4l0-0.1l-15.2-5.4l0.5-1.4l21.3,7.6l-0.3,0.8l-21.9,7.8l0,0.1l16.4,5.9
			l-0.5,1.5L514.7,453.9z"/>
	</g>
</g>
</svg>
