<?xml version="1.0" encoding="utf-8"?>
<!-- Generator: Adobe Illustrator 16.0.4, SVG Export Plug-In . SVG Version: 6.00 Build 0)  -->
<!DOCTYPE svg PUBLIC "-//W3C//DTD SVG 1.1//EN" "http://www.w3.org/Graphics/SVG/1.1/DTD/svg11.dtd">
<svg version="1.1" id="Ebene_1" xmlns="http://www.w3.org/2000/svg" xmlns:xlink="http://www.w3.org/1999/xlink" x="0px" y="0px"
	viewBox="0 0 180 35" enable-background="new 0 0 180 35" xml:space="preserve">
<g>
	<path fill="#FFFFFF" d="M0,25.832V0.436h3.12v9.112C4.574,7.863,6.41,7.019,8.627,7.019c1.363,0,2.547,0.269,3.553,0.805
		c1.004,0.538,1.723,1.279,2.157,2.227c0.432,0.947,0.648,2.321,0.648,4.124v11.658h-3.118V14.174c0-1.561-0.339-2.695-1.014-3.405
		c-0.676-0.711-1.632-1.065-2.868-1.065c-0.923,0-1.792,0.24-2.607,0.719c-0.813,0.479-1.394,1.128-1.74,1.948
		s-0.52,1.951-0.52,3.396v10.065H0z"/>
	<path fill="#FFFFFF" d="M30.553,19.908l3.222,0.398c-0.508,1.883-1.448,3.344-2.824,4.383c-1.374,1.039-3.128,1.559-5.266,1.559
		c-2.692,0-4.826-0.828-6.401-2.484c-1.576-1.658-2.365-3.984-2.365-6.974c0-3.095,0.797-5.498,2.391-7.208
		c1.594-1.709,3.661-2.563,6.202-2.563c2.459,0,4.47,0.837,6.028,2.511c1.561,1.675,2.339,4.032,2.339,7.07
		c0,0.185-0.005,0.46-0.017,0.831H20.141c0.116,2.021,0.688,3.57,1.716,4.642c1.026,1.076,2.309,1.611,3.845,1.611
		c1.143,0,2.12-0.299,2.928-0.9C29.438,22.184,30.08,21.225,30.553,19.908z M20.315,14.867h10.272
		c-0.139-1.547-0.532-2.709-1.178-3.483c-0.993-1.201-2.28-1.802-3.864-1.802c-1.431,0-2.636,0.479-3.612,1.438
		C20.959,11.978,20.419,13.261,20.315,14.867z"/>
	<path fill="#FFFFFF" d="M35.848,25.832V0.436h3.119v25.396H35.848z"/>
	<path fill="#FFFFFF" d="M41.956,25.832V0.436h3.118v25.396H41.956z"/>
	<path fill="#FFFFFF" d="M46.973,16.633c0-3.407,0.947-5.93,2.841-7.57c1.582-1.362,3.511-2.045,5.787-2.045
		c2.529,0,4.596,0.829,6.201,2.485c1.606,1.659,2.41,3.949,2.41,6.869c0,2.368-0.355,4.231-1.065,5.588
		c-0.711,1.355-1.745,2.412-3.102,3.162c-1.357,0.75-2.837,1.125-4.443,1.125c-2.575,0-4.657-0.826-6.246-2.477
		C47.766,22.119,46.973,19.74,46.973,16.633z M50.178,16.633c0,2.357,0.513,4.121,1.542,5.292c1.027,1.172,2.321,1.758,3.88,1.758
		c1.547,0,2.835-0.588,3.863-1.766c1.027-1.18,1.542-2.975,1.542-5.389c0-2.274-0.517-3.999-1.551-5.17
		C58.42,10.186,57.136,9.6,55.6,9.6c-1.559,0-2.854,0.583-3.88,1.75C50.691,12.516,50.178,14.277,50.178,16.633z"/>
	<path fill="#FFFFFF" d="M88.417,7.435h2.705V6.048c0-1.547,0.164-2.703,0.493-3.464c0.329-0.762,0.935-1.383,1.819-1.862
		c0.883-0.479,2.001-0.719,3.351-0.719c1.387,0,2.744,0.207,4.072,0.624l-0.658,3.395c-0.773-0.185-1.519-0.277-2.235-0.277
		c-0.705,0-1.211,0.164-1.516,0.494C96.142,4.567,95.99,5.2,95.99,6.135v1.3h3.637v3.828H95.99v14.569h-4.868V11.263h-2.705V7.435z"
		/>
	<path fill="#FFFFFF" d="M111.244,19.977l4.851,0.814c-0.622,1.779-1.607,3.133-2.954,4.062c-1.344,0.932-3.028,1.395-5.049,1.395
		c-3.199,0-5.567-1.045-7.104-3.137c-1.213-1.674-1.818-3.787-1.818-6.34c0-3.047,0.797-5.436,2.39-7.163
		c1.594-1.726,3.61-2.589,6.046-2.589c2.738,0,4.896,0.904,6.48,2.711c1.581,1.808,2.339,4.577,2.27,8.307h-12.196
		c0.034,1.443,0.427,2.566,1.177,3.369s1.687,1.205,2.808,1.205c0.762,0,1.402-0.209,1.924-0.625
		C110.586,21.57,110.979,20.902,111.244,19.977z M111.52,15.058c-0.033-1.41-0.396-2.48-1.089-3.215
		c-0.694-0.732-1.536-1.099-2.529-1.099c-1.062,0-1.941,0.387-2.634,1.16c-0.693,0.774-1.033,1.825-1.022,3.154H111.52z"/>
	<path fill="#FFFFFF" d="M118.549,25.832V0.436h4.869v25.396H118.549z"/>
	<path fill="#FFFFFF" d="M126.631,25.832V0.436h4.869v25.396H126.631z"/>
	<path fill="#FFFFFF" d="M133.589,16.373c0-1.616,0.398-3.181,1.196-4.693c0.797-1.514,1.925-2.667,3.386-3.465
		s3.092-1.196,4.895-1.196c2.782,0,5.064,0.904,6.844,2.711c1.776,1.808,2.667,4.091,2.667,6.852c0,2.784-0.899,5.09-2.693,6.92
		c-1.798,1.832-4.059,2.746-6.783,2.746c-1.688,0-3.296-0.381-4.824-1.145c-1.532-0.762-2.693-1.879-3.49-3.352
		C133.987,20.281,133.589,18.488,133.589,16.373z M138.577,16.633c0,1.826,0.434,3.222,1.3,4.193s1.935,1.455,3.205,1.455
		s2.336-0.484,3.195-1.455c0.861-0.971,1.293-2.381,1.293-4.227c0-1.803-0.432-3.188-1.293-4.158
		c-0.859-0.972-1.925-1.456-3.195-1.456s-2.339,0.484-3.205,1.456C139.011,13.411,138.577,14.809,138.577,16.633z"/>
	<path fill="#FFFFFF" d="M158.397,25.832l-5.821-18.397h4.73l3.447,12.057l3.17-12.057h4.695l3.066,12.057l3.517-12.057H180
		l-5.907,18.397h-4.676L166.247,14l-3.12,11.832H158.397z"/>
</g>
<path id="pointer" fill="#83BA5E" d="M76.833,6.83c-5.332,0-9.656,4.324-9.656,9.657c0,1.416,0.646,3.338,0.646,3.338
	c0.117,0.346,0.342,0.902,0.498,1.234L76.55,34.75c0.157,0.33,0.413,0.33,0.568,0l8.229-13.691c0.156-0.332,0.38-0.889,0.498-1.234
	c0,0,0.646-1.922,0.646-3.338C86.49,11.154,82.168,6.83,76.833,6.83 M76.833,19.83c-1.846,0-3.344-1.498-3.344-3.344
	c0-1.847,1.498-3.345,3.344-3.345c1.847,0,3.345,1.498,3.345,3.345C80.179,18.332,78.681,19.83,76.833,19.83"/>
</svg>
