<svg xmlns="http://www.w3.org/2000/svg" viewBox="0 0 180 35"><g fill="#FFF"><path d="M0 25.832V.436h3.12v9.112c1.454-1.685 3.29-2.53 5.507-2.53 1.363 0 2.547.27 3.553.806 1.004.538 1.723 1.28 2.157 2.227.432.948.648 2.322.648 4.125v11.658h-3.118v-11.66c0-1.56-.34-2.694-1.014-3.404-.676-.712-1.632-1.066-2.868-1.066-.923 0-1.792.24-2.607.72-.813.478-1.394 1.127-1.74 1.947s-.52 1.952-.52 3.397v10.065H0zM30.553 19.908l3.222.398c-.508 1.883-1.448 3.344-2.824 4.383-1.373 1.038-3.127 1.558-5.265 1.558-2.692 0-4.826-.828-6.4-2.484-1.577-1.658-2.366-3.984-2.366-6.974 0-3.095.796-5.498 2.39-7.208s3.66-2.563 6.202-2.563c2.46 0 4.47.836 6.028 2.51 1.56 1.675 2.34 4.032 2.34 7.07 0 .185-.006.46-.018.83h-13.72c.115 2.022.687 3.57 1.715 4.643 1.026 1.076 2.31 1.61 3.845 1.61 1.143 0 2.12-.298 2.928-.9.808-.6 1.45-1.558 1.923-2.875zm-10.238-5.04h10.272c-.14-1.548-.532-2.71-1.178-3.484-.994-1.2-2.28-1.802-3.865-1.802-1.43 0-2.636.48-3.612 1.438-.974.958-1.514 2.24-1.618 3.847zM35.848 25.832V.436h3.12v25.396h-3.12zM41.956 25.832V.436h3.118v25.396h-3.118zM46.973 16.633c0-3.407.947-5.93 2.84-7.57 1.583-1.362 3.512-2.045 5.788-2.045 2.53 0 4.597.83 6.202 2.485 1.606 1.66 2.41 3.95 2.41 6.87 0 2.367-.355 4.23-1.065 5.587-.71 1.355-1.745 2.412-3.102 3.162-1.357.75-2.837 1.125-4.443 1.125-2.575 0-4.657-.826-6.246-2.477-1.59-1.65-2.383-4.03-2.383-7.137zm3.205 0c0 2.357.513 4.12 1.542 5.292 1.027 1.172 2.32 1.758 3.88 1.758 1.547 0 2.835-.588 3.863-1.766 1.027-1.18 1.542-2.975 1.542-5.39 0-2.273-.517-3.998-1.55-5.17C58.42 10.188 57.134 9.6 55.6 9.6c-1.56 0-2.854.583-3.88 1.75-1.03 1.166-1.542 2.927-1.542 5.283zM88.417 7.435h2.705V6.048c0-1.547.164-2.703.493-3.464.33-.762.935-1.383 1.82-1.862.882-.48 2-.72 3.35-.72 1.387 0 2.744.208 4.072.625l-.658 3.395c-.774-.185-1.52-.277-2.236-.277-.705 0-1.21.164-1.516.494-.306.327-.458.96-.458 1.895v1.3h3.637v3.828H95.99v14.57h-4.868v-14.57h-2.705V7.435zM111.244 19.977l4.85.814c-.62 1.78-1.606 3.134-2.953 4.063-1.343.932-3.027 1.395-5.048 1.395-3.2 0-5.567-1.045-7.104-3.137-1.213-1.673-1.818-3.786-1.818-6.34 0-3.046.797-5.435 2.39-7.162 1.594-1.726 3.61-2.59 6.046-2.59 2.738 0 4.896.905 6.48 2.712 1.58 1.808 2.34 4.577 2.27 8.307H104.16c.034 1.443.427 2.566 1.177 3.37s1.687 1.204 2.808 1.204c.762 0 1.402-.208 1.924-.624.516-.416.91-1.084 1.174-2.01zm.276-4.92c-.033-1.41-.396-2.48-1.09-3.214-.693-.732-1.535-1.1-2.528-1.1-1.062 0-1.94.388-2.634 1.16-.693.775-1.033 1.826-1.022 3.155h7.274zM118.55 25.832V.436h4.868v25.396h-4.87zM126.63 25.832V.436h4.87v25.396h-4.87zM133.59 16.373c0-1.616.397-3.18 1.195-4.693.797-1.514 1.925-2.667 3.386-3.465s3.093-1.196 4.896-1.196c2.782 0 5.064.903 6.844 2.71 1.776 1.808 2.667 4.09 2.667 6.852 0 2.784-.9 5.09-2.693 6.92-1.798 1.832-4.06 2.746-6.783 2.746-1.687 0-3.295-.38-4.823-1.145-1.532-.762-2.693-1.88-3.49-3.352-.8-1.47-1.198-3.262-1.198-5.377zm4.987.26c0 1.826.434 3.222 1.3 4.193s1.935 1.455 3.205 1.455 2.336-.483 3.195-1.454c.86-.97 1.293-2.38 1.293-4.227 0-1.804-.432-3.19-1.293-4.16-.86-.97-1.925-1.455-3.195-1.455s-2.34.484-3.205 1.456c-.866.97-1.3 2.37-1.3 4.193zM158.397 25.832l-5.82-18.397h4.73l3.446 12.057 3.17-12.057h4.695l3.066 12.057L175.2 7.435h4.8l-5.907 18.397h-4.676L166.247 14l-3.12 11.832h-4.73z"/></g><path fill="#83BA5E" d="M76.833 6.83c-5.332 0-9.656 4.324-9.656 9.657 0 1.416.646 3.338.646 3.338.117.346.342.902.498 1.234l8.23 13.69c.157.33.413.33.568 0l8.23-13.69c.155-.333.38-.89.497-1.235 0 0 .646-1.922.646-3.338 0-5.333-4.322-9.657-9.657-9.657m0 13c-1.846 0-3.344-1.498-3.344-3.344 0-1.847 1.497-3.345 3.343-3.345 1.847 0 3.345 1.5 3.345 3.346s-1.497 3.344-3.345 3.344"/></svg>